<svg width="20.000000" height="20.000000" viewBox="0 0 20 20" fill="none" xmlns="http://www.w3.org/2000/svg" xmlns:xlink="http://www.w3.org/1999/xlink">
	<desc>
			Created with Pixso.
	</desc>
	<defs>
		<clipPath id="clip8_250">
			<rect id="bx:time-five" rx="0.000000" width="19.000000" height="19.000000" transform="translate(0.500000 0.500000)" fill="white" fill-opacity="0"/>
		</clipPath>
	</defs>
	<rect id="bx:time-five" rx="0.000000" width="19.000000" height="19.000000" transform="translate(0.500000 0.500000)" fill="#FFFFFF" fill-opacity="0"/>
	<g clip-path="url(#clip8_250)">
		<path id="Vector" d="M10 1.66C5.4 1.66 1.66 5.4 1.66 10C1.66 14.59 5.4 18.33 10 18.33C14.59 18.33 18.33 14.59 18.33 10C18.33 5.4 14.59 1.66 10 1.66ZM10 16.66C6.32 16.66 3.33 13.67 3.33 10C3.33 6.32 6.32 3.33 10 3.33C13.67 3.33 16.66 6.32 16.66 10C16.66 13.67 13.67 16.66 10 16.66Z" fill="#2A90D9" fill-opacity="1.000000" fill-rule="nonzero"/>
		<path id="Vector" d="M10.83 5.83L9.16 5.83L9.16 10.34L11.91 13.08L13.08 11.91L10.83 9.65L10.83 5.83Z" fill="#2A90D9" fill-opacity="1.000000" fill-rule="nonzero"/>
	</g>
</svg>
