<svg width="16.000000" height="16.042664" viewBox="0 0 16 16.0427" fill="none" xmlns="http://www.w3.org/2000/svg" xmlns:xlink="http://www.w3.org/1999/xlink">
	<desc>
			Created with Pixso.
	</desc>
	<defs/>
	<path id="Combined-Shape-path" d="M3.31 0.03C3.27 0.03 3.23 0.03 3.19 0C2.82 0.08 2.45 0.16 2.09 0.25C1.64 0.38 1.28 0.65 1 1.02C0.65 1.51 0.41 2.04 0.22 2.61C0.01 3.23 -0.06 3.86 0.04 4.52C0.13 5.1 0.32 5.65 0.52 6.2C0.85 7.11 1.21 8 1.72 8.82C2.5 10.1 3.46 11.22 4.54 12.25C5.4 13.05 6.32 13.78 7.33 14.38C8.44 15.04 9.66 15.47 10.88 15.85C11.52 16.05 12.18 16.1 12.85 15.95C13.58 15.79 14.27 15.52 14.88 15.09C15.11 14.93 15.33 14.74 15.48 14.51C15.85 13.98 15.96 13.35 15.99 12.71C16.01 12.48 15.93 12.32 15.74 12.21C15.38 11.99 15.03 11.77 14.67 11.56C14 11.18 13.29 10.86 12.65 10.4C12.59 10.36 12.52 10.33 12.45 10.3C12.21 10.17 11.99 10.19 11.78 10.37C11.67 10.46 11.57 10.54 11.48 10.64C11.11 11.06 10.76 11.47 10.39 11.88C9.99 12.33 9.79 12.37 9.28 12.09C8.74 11.78 8.2 11.46 7.68 11.11C6.35 10.2 5.29 9.02 4.46 7.64C4.23 7.27 4.03 6.88 3.83 6.5C3.69 6.25 3.75 6.02 3.94 5.83C4.19 5.59 4.46 5.36 4.72 5.12C5.03 4.84 5.35 4.56 5.64 4.27C5.84 4.06 5.85 3.8 5.71 3.54C5.64 3.42 5.58 3.31 5.5 3.19C5.43 3.07 5.33 2.96 5.27 2.83C5 2.36 4.76 1.89 4.49 1.42C4.26 1.02 4.02 0.63 3.78 0.24C3.67 0.06 3.5 0.01 3.31 0.03Z" fill="#FFFFFF" fill-opacity="1.000000" fill-rule="nonzero"/>
</svg>
