<svg width="14.069031" height="13.429443" viewBox="0 0 14.069 13.4294" fill="none" xmlns="http://www.w3.org/2000/svg" xmlns:xlink="http://www.w3.org/1999/xlink">
	<desc>
			Created with Pixso.
	</desc>
	<defs/>
	<path id="Star 1" d="M6.58 0.27L4.79 3.89C4.72 4.04 4.58 4.14 4.42 4.17L0.42 4.75C0.01 4.81 -0.15 5.31 0.15 5.6L3.04 8.42C3.15 8.53 3.21 8.7 3.18 8.86L2.5 12.84C2.43 13.25 2.86 13.56 3.22 13.37L6.8 11.49C6.94 11.41 7.12 11.41 7.26 11.49L10.84 13.37C11.2 13.56 11.63 13.25 11.56 12.84L10.88 8.86C10.85 8.7 10.9 8.53 11.02 8.42L13.91 5.6C14.21 5.31 14.05 4.81 13.64 4.75L9.64 4.17C9.48 4.14 9.34 4.04 9.26 3.89L7.48 0.27C7.29 -0.1 6.76 -0.1 6.58 0.27Z" fill="#EFC968" fill-opacity="1.000000" fill-rule="evenodd"/>
</svg>
